<svg viewBox="0 0 40 40" fill="none" xmlns="http://www.w3.org/2000/svg">
  
  <rect width="40" height="40" rx="10" fill="#00E5BC"></rect>
  
  <path d="M7 17.5C7 14.5 9.5 12 12.5 12H27.5C30.5 12 33 14.5 33 17.5V22C33 25.5 30 27.5 27.5 27.5L24 27.5L22 30H18L16 27.5L12.5 27.5C9.5 27.5 7 25.5 7 22V17.5Z" fill="#0B1121"></path>
  
  <rect x="11" y="18.5" width="2" height="6" rx="1" fill="#00E5BC"></rect>
  <rect x="9" y="20.5" width="6" height="2" rx="1" fill="#00E5BC"></rect>
  
  <circle cx="27" cy="18" r="1.8" fill="#8B5CF6" opacity="0.9"></circle>
  <circle cx="30" cy="20.5" r="1.8" fill="#00A3FF" opacity="0.9"></circle>
  <circle cx="27" cy="23" r="1.8" fill="#10B981" opacity="0.9"></circle>
  <circle cx="24" cy="20.5" r="1.8" fill="#EF4444" opacity="0.9"></circle>
  
  <rect x="17.5" y="19.5" width="2" height="2" rx="0.5" fill="#0B1121" opacity="0.5"></rect>
  <rect x="20.5" y="19.5" width="2" height="2" rx="0.5" fill="#0B1121" opacity="0.5"></rect>
</svg>